<svg style="display: none" xmlns="http://www.w3.org/2000/svg">

    <symbol id="logo" viewBox="0 0 713 127">
        <g>
            <path
            d="M154.816 73.52C154.816 77.04 154.176 80.368 152.896 83.504C151.616 86.576 149.856 89.232 147.616 91.472C145.44 93.712 142.816 95.504 139.744 96.848C136.672 98.128 133.408 98.768 129.952 98.768C127.2 98.768 124.576 98.352 122.08 97.52C119.584 96.688 117.28 95.472 115.168 93.872V98H105.664V30.8L115.264 28.688V53.744C117.248 52.016 119.52 50.704 122.08 49.808C124.64 48.848 127.328 48.368 130.144 48.368C133.6 48.368 136.832 49.04 139.84 50.384C142.848 51.664 145.44 53.424 147.616 55.664C149.856 57.904 151.616 60.56 152.896 63.632C154.176 66.704 154.816 70 154.816 73.52ZM128.896 56.72C126.144 56.72 123.584 57.232 121.216 58.256C118.848 59.28 116.864 60.72 115.264 62.576V84.656C116.8 86.448 118.752 87.856 121.12 88.88C123.552 89.904 126.144 90.416 128.896 90.416C133.568 90.416 137.472 88.816 140.608 85.616C143.808 82.416 145.408 78.416 145.408 73.616C145.408 68.816 143.808 64.816 140.608 61.616C137.408 58.352 133.504 56.72 128.896 56.72ZM184.701 98.864C179.389 98.864 175.069 97.488 171.741 94.736C168.413 91.984 166.749 88.4 166.749 83.984C166.749 79.376 168.509 75.76 172.029 73.136C175.549 70.448 180.381 69.104 186.525 69.104C188.893 69.104 191.197 69.36 193.437 69.872C195.677 70.32 197.821 70.96 199.869 71.792V66.608C199.869 63.152 198.845 60.56 196.797 58.832C194.749 57.104 191.805 56.24 187.965 56.24C185.725 56.24 183.389 56.592 180.957 57.296C178.525 57.936 175.805 58.96 172.797 60.368L169.245 53.168C172.893 51.44 176.349 50.192 179.613 49.424C182.877 48.592 186.109 48.176 189.309 48.176C195.645 48.176 200.541 49.712 203.997 52.784C207.517 55.792 209.277 60.08 209.277 65.648V98H199.869V93.776C197.693 95.504 195.357 96.784 192.861 97.616C190.365 98.448 187.645 98.864 184.701 98.864ZM175.965 83.792C175.965 86.16 176.957 88.08 178.941 89.552C180.989 91.024 183.645 91.76 186.909 91.76C189.469 91.76 191.837 91.376 194.013 90.608C196.189 89.84 198.141 88.688 199.869 87.152V78.704C198.013 77.68 196.061 76.944 194.013 76.496C191.965 75.984 189.725 75.728 187.293 75.728C183.837 75.728 181.085 76.464 179.037 77.936C176.989 79.408 175.965 81.36 175.965 83.792ZM222.931 73.52C222.931 70 223.571 66.704 224.851 63.632C226.195 60.496 228.019 57.808 230.323 55.568C232.627 53.264 235.315 51.472 238.387 50.192C241.523 48.848 244.851 48.176 248.371 48.176C251.891 48.176 255.187 48.848 258.259 50.192C261.395 51.472 264.083 53.264 266.323 55.568C268.627 57.808 270.419 60.496 271.699 63.632C273.043 66.704 273.715 70 273.715 73.52C273.715 77.104 273.043 80.464 271.699 83.6C270.419 86.672 268.627 89.36 266.323 91.664C264.083 93.904 261.395 95.696 258.259 97.04C255.187 98.32 251.891 98.96 248.371 98.96C244.851 98.96 241.523 98.32 238.387 97.04C235.315 95.696 232.627 93.904 230.323 91.664C228.019 89.36 226.195 86.672 224.851 83.6C223.571 80.464 222.931 77.104 222.931 73.52ZM248.371 90.512C252.787 90.512 256.531 88.88 259.603 85.616C262.739 82.288 264.307 78.256 264.307 73.52C264.307 68.784 262.739 64.784 259.603 61.52C256.531 58.256 252.787 56.624 248.371 56.624C243.955 56.624 240.179 58.256 237.043 61.52C233.907 64.784 232.339 68.784 232.339 73.52C232.339 78.256 233.875 82.288 236.947 85.616C240.083 88.88 243.891 90.512 248.371 90.512ZM336.747 73.52C336.747 77.04 336.107 80.368 334.827 83.504C333.547 86.576 331.787 89.232 329.547 91.472C327.371 93.712 324.747 95.504 321.675 96.848C318.603 98.128 315.339 98.768 311.883 98.768C309.131 98.768 306.507 98.352 304.011 97.52C301.515 96.688 299.211 95.472 297.099 93.872V98H287.595V30.8L297.195 28.688V53.744C299.179 52.016 301.451 50.704 304.011 49.808C306.571 48.848 309.259 48.368 312.075 48.368C315.531 48.368 318.763 49.04 321.771 50.384C324.779 51.664 327.371 53.424 329.547 55.664C331.787 57.904 333.547 60.56 334.827 63.632C336.107 66.704 336.747 70 336.747 73.52ZM310.827 56.72C308.075 56.72 305.515 57.232 303.147 58.256C300.779 59.28 298.795 60.72 297.195 62.576V84.656C298.731 86.448 300.683 87.856 303.051 88.88C305.483 89.904 308.075 90.416 310.827 90.416C315.499 90.416 319.403 88.816 322.539 85.616C325.739 82.416 327.339 78.416 327.339 73.616C327.339 68.816 325.739 64.816 322.539 61.616C319.339 58.352 315.435 56.72 310.827 56.72ZM366.632 98.864C361.32 98.864 357 97.488 353.672 94.736C350.344 91.984 348.68 88.4 348.68 83.984C348.68 79.376 350.44 75.76 353.96 73.136C357.48 70.448 362.312 69.104 368.456 69.104C370.824 69.104 373.128 69.36 375.368 69.872C377.608 70.32 379.752 70.96 381.8 71.792V66.608C381.8 63.152 380.776 60.56 378.728 58.832C376.68 57.104 373.736 56.24 369.896 56.24C367.656 56.24 365.32 56.592 362.888 57.296C360.456 57.936 357.736 58.96 354.728 60.368L351.176 53.168C354.824 51.44 358.28 50.192 361.544 49.424C364.808 48.592 368.04 48.176 371.24 48.176C377.576 48.176 382.472 49.712 385.929 52.784C389.448 55.792 391.208 60.08 391.208 65.648V98H381.8V93.776C379.624 95.504 377.288 96.784 374.792 97.616C372.296 98.448 369.576 98.864 366.632 98.864ZM357.896 83.792C357.896 86.16 358.888 88.08 360.872 89.552C362.92 91.024 365.576 91.76 368.84 91.76C371.4 91.76 373.768 91.376 375.944 90.608C378.12 89.84 380.072 88.688 381.8 87.152V78.704C379.944 77.68 377.992 76.944 375.944 76.496C373.896 75.984 371.656 75.728 369.224 75.728C365.768 75.728 363.016 76.464 360.968 77.936C358.92 79.408 357.896 81.36 357.896 83.792ZM456.222 73.52C456.222 77.04 455.582 80.368 454.302 83.504C453.022 86.576 451.262 89.232 449.022 91.472C446.846 93.712 444.222 95.504 441.15 96.848C438.078 98.128 434.814 98.768 431.358 98.768C428.606 98.768 425.982 98.352 423.486 97.52C420.99 96.688 418.686 95.472 416.574 93.872V98H407.07V30.8L416.67 28.688V53.744C418.654 52.016 420.926 50.704 423.486 49.808C426.046 48.848 428.734 48.368 431.55 48.368C435.006 48.368 438.238 49.04 441.246 50.384C444.254 51.664 446.846 53.424 449.022 55.664C451.262 57.904 453.022 60.56 454.302 63.632C455.582 66.704 456.222 70 456.222 73.52ZM430.302 56.72C427.55 56.72 424.99 57.232 422.622 58.256C420.254 59.28 418.27 60.72 416.67 62.576V84.656C418.206 86.448 420.158 87.856 422.526 88.88C424.958 89.904 427.55 90.416 430.302 90.416C434.974 90.416 438.878 88.816 442.014 85.616C445.214 82.416 446.814 78.416 446.814 73.616C446.814 68.816 445.214 64.816 442.014 61.616C438.814 58.352 434.91 56.72 430.302 56.72ZM472.355 86.576C474.019 86.576 475.427 87.184 476.579 88.4C477.795 89.552 478.403 90.96 478.403 92.624C478.403 94.288 477.795 95.728 476.579 96.944C475.427 98.16 474.019 98.768 472.355 98.768C470.691 98.768 469.251 98.16 468.035 96.944C466.819 95.728 466.211 94.288 466.211 92.624C466.211 90.96 466.819 89.552 468.035 88.4C469.251 87.184 470.691 86.576 472.355 86.576ZM507.759 98H498.447L484.815 49.136H494.127L503.535 85.04L514.767 49.136H523.023L534.159 85.04L543.663 49.136H552.687L538.959 98H529.743L518.799 62.192L507.759 98ZM561.2 73.52C561.2 70 561.84 66.704 563.12 63.632C564.464 60.496 566.288 57.808 568.592 55.568C570.896 53.264 573.584 51.472 576.656 50.192C579.792 48.848 583.12 48.176 586.64 48.176C590.16 48.176 593.456 48.848 596.528 50.192C599.664 51.472 602.352 53.264 604.592 55.568C606.896 57.808 608.688 60.496 609.968 63.632C611.312 66.704 611.984 70 611.984 73.52C611.984 77.104 611.312 80.464 609.968 83.6C608.688 86.672 606.896 89.36 604.592 91.664C602.352 93.904 599.664 95.696 596.528 97.04C593.456 98.32 590.16 98.96 586.64 98.96C583.12 98.96 579.792 98.32 576.656 97.04C573.584 95.696 570.896 93.904 568.592 91.664C566.288 89.36 564.464 86.672 563.12 83.6C561.84 80.464 561.2 77.104 561.2 73.52ZM586.64 90.512C591.056 90.512 594.8 88.88 597.872 85.616C601.008 82.288 602.576 78.256 602.576 73.52C602.576 68.784 601.008 64.784 597.872 61.52C594.8 58.256 591.056 56.624 586.64 56.624C582.224 56.624 578.448 58.256 575.312 61.52C572.176 64.784 570.608 68.784 570.608 73.52C570.608 78.256 572.144 82.288 575.216 85.616C578.352 88.88 582.16 90.512 586.64 90.512ZM625.864 98V49.136H635.464V55.376C636.936 53.008 638.824 51.216 641.128 50C643.432 48.72 646.024 48.08 648.904 48.08C649.928 48.08 650.824 48.144 651.592 48.272C652.36 48.4 653.096 48.592 653.8 48.848V57.488C652.904 57.168 651.976 56.912 651.016 56.72C650.056 56.528 649.096 56.432 648.136 56.432C645.32 56.432 642.792 57.2 640.552 58.736C638.376 60.208 636.68 62.416 635.464 65.36V98H625.864ZM666.289 98V30.8L675.889 28.688V70.64L699.601 49.136H710.833L685.681 72.08L712.177 98H699.505L675.889 74.96V98H666.289Z"
            />
            <path
            d="M25.5748 112.786C12.3521 112.639 1.10661 112.296 0.73588 112.101C-0.623461 111.415 -0.129155 110.338 2.46595 108.086C4.07245 106.716 6.23504 105.492 8.45941 104.806C11.7342 103.729 12.8464 103.68 24.9569 103.729C35.708 103.729 40.095 103.974 50.2901 105.1C61.4737 106.373 63.451 106.422 71.2981 106.079C76.0558 105.834 82.9143 105.639 86.498 105.687C92.1207 105.687 93.4183 105.834 96.0752 106.911C98.1142 107.695 99.2882 108.527 99.6589 109.408C100.4 111.072 100.215 111.219 96.1988 112.101C92.3061 112.982 63.8835 113.226 25.5748 112.786Z"
            />
            <path
            d="M48.3128 100.058C44.1729 99.6172 40.651 99.1767 40.5274 99.0298C40.3421 98.8829 40.8364 89.9733 41.5778 79.2033C43.1843 56.2438 43.864 59.181 34.9047 49.7328L29.282 43.7604L27.6755 45.1311C24.3389 48.0194 18.9015 48.2642 15.3796 45.6696C14.2674 44.8374 12.9081 44.201 12.352 44.201C10.8691 44.201 7.5325 42.4876 6.54389 41.1658C3.08374 36.8579 6.17316 31.2771 12.352 30.6407C14.2056 30.4448 15.565 29.9064 16.6772 28.9762C20.4462 25.7942 27.3665 26.3816 30.2088 30.1511C31.5681 31.8645 31.8153 35.3403 30.8267 36.9068C30.0852 37.9349 31.8153 40.1868 39.2917 48.0684C42.3811 51.3483 43.2461 51.9847 43.5551 51.2504C43.7404 50.7119 44.1112 49.9776 44.3583 49.586C44.9144 48.7537 43.6786 39.5503 42.5047 35.634C42.0721 34.3122 41.2071 32.5988 40.5892 31.9135C37.8705 29.0252 39.0445 23.3465 42.7518 21.4373C43.6168 20.9967 44.4819 19.9686 44.6672 19.0875C46.2737 12.4297 56.1599 10.7652 60.485 16.4439C61.1647 17.3251 61.7208 18.6958 61.7208 19.528C61.7208 20.4092 62.4005 22.0737 63.2655 23.1996C65.0574 25.7452 65.3045 28.8294 63.7598 31.1302C62.4623 33.1373 56.1599 48.4111 56.1599 49.586C56.1599 52.2785 56.9631 51.9847 60.7322 48.0194C68.4557 39.8441 69.8151 38.0328 69.1354 36.6131C65.6753 29.4168 76.6118 23.5912 83.4085 29.0252C84.5207 29.8574 86.0036 30.4448 87.6719 30.6407C92.6767 31.1792 96.0133 35.3403 94.5304 39.2566C93.7889 41.3617 91.0085 43.5156 88.4133 44.0541C87.4865 44.201 85.7564 44.9843 84.5825 45.7186C80.628 48.2642 75.8085 48.0194 72.472 45.1801L70.8037 43.8094L65.2427 49.4881C62.2151 52.6701 59.1875 56.0969 58.446 57.1739C57.0249 59.4258 56.9631 57.9572 58.6314 82.1406C59.3111 91.8335 59.8672 100.058 59.8672 100.401C59.8672 101.135 58.0135 101.086 48.3128 100.058ZM53.3176 43.6136C56.1599 36.1235 56.3452 35.3892 55.9127 35.0466C55.233 34.5081 48.8689 34.606 48.1892 35.1445C47.8802 35.4382 48.1274 37.788 48.8071 41.019C49.4249 44.0052 49.9193 46.6977 49.981 47.0403C49.981 47.3341 50.4136 47.6278 50.9079 47.6278C51.464 47.6278 52.329 46.2571 53.3176 43.6136Z"
            />
        </g>
    </symbol>

    <symbol id="search" viewBox="0 0 17 16">
        <g>
            <path
                fill-rule="evenodd"
                d="m11.94 10.318 4.304 4.303a.807.807 0 0 1-1.142 1.14L10.8 11.459a6.4 6.4 0 1 1 1.14-1.14h.001Zm-5.06.88a4.8 4.8 0 1 0 0-9.6 4.8 4.8 0 0 0 0 9.6Z"
                clip-rule="evenodd"
            />
        </g>
    </symbol>

    <symbol id="header__icon">
        <g>
            <path
                stroke="#00A0C1"
                stroke-linecap="round"
                stroke-linejoin="round"
                stroke-width="2"
                d="M24 30a6 6 0 1 0 0-12 6 6 0 0 0 0 12Z"
            />
            <path
                stroke="#00A0C1"
                stroke-linecap="round"
                stroke-linejoin="round"
                stroke-width="2"
                d="M38.8 30a3.3 3.3 0 0 0 .66 3.64l.12.12a4 4 0 0 1-1.298 6.528 4 4 0 0 1-4.362-.868l-.12-.12a3.3 3.3 0 0 0-3.64-.66 3.3 3.3 0 0 0-2 3.02V42a4 4 0 1 1-8 0v-.18A3.3 3.3 0 0 0 18 38.8a3.3 3.3 0 0 0-3.64.66l-.12.12a4 4 0 0 1-6.528-4.362 4 4 0 0 1 .868-1.298l.12-.12a3.3 3.3 0 0 0 .66-3.64 3.3 3.3 0 0 0-3.02-2H6a4 4 0 1 1 0-8h.18A3.3 3.3 0 0 0 9.2 18a3.3 3.3 0 0 0-.66-3.64l-.12-.12a4 4 0 0 1 1.298-6.528 4 4 0 0 1 4.362.868l.12.12a3.3 3.3 0 0 0 3.64.66H18a3.3 3.3 0 0 0 2-3.02V6a4 4 0 1 1 8 0v.18a3.3 3.3 0 0 0 2 3.02 3.3 3.3 0 0 0 3.64-.66l.12-.12a4 4 0 0 1 6.528 1.298 4 4 0 0 1-.868 4.362l-.12.12a3.3 3.3 0 0 0-.66 3.64V18a3.3 3.3 0 0 0 3.02 2H42a4 4 0 1 1 0 8h-.18a3.3 3.3 0 0 0-3.02 2v0Z"
            />
        </g>
    </symbol>

    <symbol id="header__light-icon">
        <g>
            <path
                stroke="#ffffff"
                stroke-linecap="round"
                stroke-linejoin="round"
                stroke-width="2"
                d="M24 30a6 6 0 1 0 0-12 6 6 0 0 0 0 12Z"
            />
            <path
                stroke="#ffffff"
                stroke-linecap="round"
                stroke-linejoin="round"
                stroke-width="2"
                d="M38.8 30a3.3 3.3 0 0 0 .66 3.64l.12.12a4 4 0 0 1-1.298 6.528 4 4 0 0 1-4.362-.868l-.12-.12a3.3 3.3 0 0 0-3.64-.66 3.3 3.3 0 0 0-2 3.02V42a4 4 0 1 1-8 0v-.18A3.3 3.3 0 0 0 18 38.8a3.3 3.3 0 0 0-3.64.66l-.12.12a4 4 0 0 1-6.528-4.362 4 4 0 0 1 .868-1.298l.12-.12a3.3 3.3 0 0 0 .66-3.64 3.3 3.3 0 0 0-3.02-2H6a4 4 0 1 1 0-8h.18A3.3 3.3 0 0 0 9.2 18a3.3 3.3 0 0 0-.66-3.64l-.12-.12a4 4 0 0 1 1.298-6.528 4 4 0 0 1 4.362.868l.12.12a3.3 3.3 0 0 0 3.64.66H18a3.3 3.3 0 0 0 2-3.02V6a4 4 0 1 1 8 0v.18a3.3 3.3 0 0 0 2 3.02 3.3 3.3 0 0 0 3.64-.66l.12-.12a4 4 0 0 1 6.528 1.298 4 4 0 0 1-.868 4.362l-.12.12a3.3 3.3 0 0 0-.66 3.64V18a3.3 3.3 0 0 0 3.02 2H42a4 4 0 1 1 0 8h-.18a3.3 3.3 0 0 0-3.02 2v0Z"
            />
        </g>
    </symbol>

    <symbol id="features__first-icon">
        <g fill="#00A0C1" clip-path="url(#a)">
            <path
                d="M24.339 21.302c4.304 0 7.652-3.495 7.652-7.785s-3.508-7.626-7.812-7.626-7.652 3.495-7.652 7.626c0 4.29 3.508 7.785 7.812 7.785Zm-.16-12.233c.16 0 .16 0 0 0 2.55 0 4.623 2.065 4.623 4.607 0 2.542-2.072 4.449-4.623 4.449a4.448 4.448 0 0 1-4.463-4.449c0-2.542 2.072-4.607 4.463-4.607ZM47.932 20.349c-3.03-2.701-7.015-4.131-11.16-3.972h-1.275c-.319 1.27-.797 2.383-1.434 3.336.956-.159 1.753-.159 2.71-.159 3.028-.159 6.057.795 8.448 2.542v11.44h3.189v-12.71l-.478-.477ZM33.107 6.208c.797-1.906 3.029-2.86 5.101-2.065 1.913.794 2.87 3.019 2.073 5.084-.638 1.43-2.073 2.383-3.508 2.383-.319 0-.797 0-1.116-.159.16.795.16 1.59.16 2.225v.953c.319 0 .638.159.956.159 3.986 0 7.174-3.178 7.174-6.99 0-3.973-3.188-7.15-7.014-7.15-2.55 0-4.783 1.27-6.058 3.495.797.476 1.594 1.112 2.232 2.065ZM14.933 19.872c-.637-.953-1.116-2.065-1.434-3.336h-1.276a16.438 16.438 0 0 0-11.159 3.813l-.478.477v12.71h3.188v-11.44c2.55-1.747 5.42-2.7 8.45-2.541.956 0 1.912.159 2.71.317ZM12.225 14.63c.319 0 .637 0 .956-.16v-.953c0-.794 0-1.588.16-2.224-.32.159-.797.159-1.116.159-2.073 0-3.826-1.748-3.826-3.813 0-2.066 1.753-3.813 3.826-3.813 1.594 0 3.029.953 3.666 2.383.638-.795 1.594-1.589 2.391-2.224C16.21.648 11.906-.465 8.558 1.6 5.21 3.667 4.094 7.957 6.167 11.293c1.275 2.066 3.507 3.337 6.058 3.337ZM37.412 29.882l-.319-.477c-3.188-3.495-7.652-5.56-12.434-5.402-4.783-.159-9.406 1.907-12.594 5.402l-.319.477v12.075c0 1.43 1.116 2.7 2.71 2.7h20.405c1.435 0 2.71-1.27 2.71-2.7V29.882h-.16ZM34.224 41.48h-19.29V30.994c2.551-2.542 6.058-3.813 9.725-3.813 3.507-.16 7.014 1.27 9.565 3.813V41.48Z"
            />
        </g>
        <defs>
            <clipPath id="a">
                <path fill="#fff" d="M.5.5h48v44.211H.5z" />
            </clipPath>
        </defs>
    </symbol>

    <symbol id="features__second-icon">
        <g clip-path="url(#a)">
            <g clip-path="url(#b)">
                <path
                    fill="#00A0C1"
                    d="M43.15 26.738a4.726 4.726 0 0 0-1.682.323l-5.74-4.768c.14-.52.241-1.059.241-1.627 0-3.366-2.666-6.072-5.984-6.072S24 17.3 24 20.666c0 .962.24 1.858.628 2.664l-6.964 8.35a4.864 4.864 0 0 0-.845-.085c-.428 0-.833.073-1.226.18L9.458 25.55c.108-.396.18-.806.18-1.24 0-2.692-2.136-4.858-4.788-4.858S.063 21.618.063 24.309c0 2.691 2.135 4.858 4.787 4.858.429 0 .833-.073 1.226-.18l6.135 6.225a4.696 4.696 0 0 0-.18 1.24c0 2.692 2.136 4.858 4.788 4.858s4.788-2.166 4.788-4.857a4.9 4.9 0 0 0-.295-1.63l6.973-8.36c.544.16 1.106.275 1.7.275a5.868 5.868 0 0 0 2.712-.683l5.743 4.768c-.045.255-.071.513-.077.772 0 2.691 2.135 4.858 4.788 4.858 2.652 0 4.787-2.167 4.787-4.858 0-2.69-2.135-4.857-4.787-4.857Z"
                />
            </g>
        </g>
            <defs>
                <clipPath id="a">
                    <path fill="#fff" d="M.332.5h48v48h-48z" />
                </clipPath>
                <clipPath id="b">
                    <path fill="#fff" d="M0 14.5h48v27H0z" />
                </clipPath>
            </defs>
    </symbol>

    <symbol id="features__third-icon">
        <g clip-path="url(#a)">
                      <path
                        fill="#00A0C1"
                        d="M9.233 34.495c-.811-.815-.389-.585-2.345-1.111-.887-.24-1.668-.699-2.373-1.249L.28 42.564c-.41 1.01.356 2.106 1.44 2.065l4.918-.188 3.382 3.589a1.49 1.49 0 0 0 2.467-.465L17.345 35.6c-1.011.566-2.134.898-3.295.898-1.82 0-3.53-.711-4.817-2.003Zm26.663 8.069-4.234-10.429c-.706.551-1.486 1.01-2.374 1.249-1.966.529-1.535.298-2.344 1.11a6.756 6.756 0 0 1-4.818 2.004c-1.161 0-2.284-.332-3.296-.898l4.858 11.965a1.49 1.49 0 0 0 2.467.465l3.383-3.59 4.918.19c1.085.04 1.85-1.057 1.44-2.066Zm-11.181-10.19c1.426-1.459 1.59-1.333 3.62-1.889a3.802 3.802 0 0 0 2.657-2.717c.699-2.662.517-2.34 2.422-4.289.95-.97 1.32-2.385.973-3.71-.697-2.661-.698-2.29 0-4.953a3.901 3.901 0 0 0-.973-3.71c-1.905-1.949-1.723-1.628-2.422-4.29A3.802 3.802 0 0 0 28.335 4.1c-2.602-.713-2.288-.527-4.195-2.476A3.703 3.703 0 0 0 20.51.63c-2.601.712-2.238.713-4.844 0a3.7 3.7 0 0 0-3.63.994c-1.904 1.948-1.59 1.763-4.194 2.476a3.802 3.802 0 0 0-2.657 2.717c-.697 2.662-.517 2.341-2.422 4.29a3.899 3.899 0 0 0-.973 3.71c.697 2.659.698 2.287 0 4.952a3.903 3.903 0 0 0 .973 3.711c1.905 1.948 1.724 1.627 2.422 4.29a3.802 3.802 0 0 0 2.657 2.716c2.089.572 2.245.482 3.62 1.888a3.697 3.697 0 0 0 4.642.546 3.691 3.691 0 0 1 3.97 0 3.696 3.696 0 0 0 4.64-.546ZM9.283 16.993c0-4.971 3.943-9.001 8.805-9.001 4.863 0 8.805 4.03 8.805 9.002 0 4.971-3.942 9.001-8.805 9.001-4.863 0-8.805-4.03-8.805-9.001Z"
                      />
                    </g>
                    <defs>
                      <clipPath id="a">
                        <path fill="#fff" d="M.168.5h35.84v48H.168z" />
                      </clipPath>
                    </defs>
    </symbol> 

    <symbol id="features__fourth-icon">
       <g>
            <path
                      fill="#00A0C1"
                      d="M43.087 9.026h-5.07v-5.07a3.38 3.38 0 0 0-3.38-3.38H14.36a3.38 3.38 0 0 0-3.38 3.38v5.07H5.91a5.07 5.07 0 0 0-5.07 5.07v23.657a3.38 3.38 0 0 0 3.38 3.38h40.558a3.38 3.38 0 0 0 3.38-3.38V14.095a5.07 5.07 0 0 0-5.07-5.07Zm-28.728-5.07h20.278v5.07H14.36v-5.07Zm30.418 33.797H4.22V22.544h13.519v8.45h13.519v-8.45h13.519v15.21ZM21.118 22.544h6.76v5.07h-6.76v-5.07ZM4.22 19.165v-5.069a1.69 1.69 0 0 1 1.69-1.69h37.177a1.69 1.69 0 0 1 1.69 1.69v5.07H4.22Z"
                    />
        </g>
    </symbol>

    <symbol id="about__first-icon">
        <g>
         <path
                        fill="#2091F9"
                        fill-rule="evenodd"
                        d="M17.237 7.772a4.25 4.25 0 1 1-4.72-7.068 4.25 4.25 0 0 1 4.722 7.068h-.002Zm-1.18-5.3a2.125 2.125 0 1 0-2.363 3.53 2.125 2.125 0 0 0 2.363-3.528v-.002Zm5.547.064a3.175 3.175 0 0 1 4.026.399 3.215 3.215 0 0 1-1.034 5.228 3.17 3.17 0 0 1-3.475-.693 3.213 3.213 0 0 1 .485-4.932l-.002-.002Zm1.02 3.42a1.061 1.061 0 1 0 1.498-1.504 1.082 1.082 0 0 0-.746-.318 1.06 1.06 0 0 0-1.063 1.068c.001.283.112.555.31.757v-.002ZM4.654 24.399h3.847v2.135H4.655a2.543 2.543 0 0 1-1.79-.759 2.571 2.571 0 0 1-.74-1.806v-3.846a2.118 2.118 0 0 1-1.508-.706 2.139 2.139 0 0 1-.616-1.561v-4.637a3.843 3.843 0 0 1 1.105-2.673A3.75 3.75 0 0 1 3.74 9.433h3.91a6.188 6.188 0 0 0-1.169 2.138H3.741a1.696 1.696 0 0 0-1.148.493c-.3.309-.468.723-.467 1.154v4.743H4.25v6.005a.43.43 0 0 0 .106.321.51.51 0 0 0 .298.106v.005Zm15.513-13.851a3.75 3.75 0 0 0-2.656-1.112h-5.27a3.75 3.75 0 0 0-2.635 1.112A3.843 3.843 0 0 0 8.5 13.22v6.753c-.003.58.218 1.139.616 1.56a2.123 2.123 0 0 0 1.509.705v4.937a2.555 2.555 0 0 0 .744 1.817 2.56 2.56 0 0 0 1.38.663H17a2.444 2.444 0 0 0 2.126-2.48v-4.939a2.118 2.118 0 0 0 1.509-.705 2.139 2.139 0 0 0 .616-1.56v-6.753a3.825 3.825 0 0 0-1.084-2.673v.002Zm-1.041 9.53H17v7.098a.43.43 0 0 1-.128.297.361.361 0 0 1-.297.128h-3.421a.446.446 0 0 1-.425-.425v-7.098h-2.104v-6.86c0-.43.168-.845.467-1.153.306-.304.716-.48 1.148-.493h5.27a1.653 1.653 0 0 1 1.498 1.02c.08.199.12.412.117.627v6.86Zm5.971 6.454h-3.846v-2.136h3.825a.51.51 0 0 0 .297-.106.424.424 0 0 0 .128-.323v-6.005h2.125v-4.743c0-.431-.167-.845-.468-1.154a1.696 1.696 0 0 0-1.147-.493H23.27a6.185 6.185 0 0 0-1.17-2.138h3.91c.991.01 1.938.409 2.636 1.112a3.844 3.844 0 0 1 1.105 2.673v4.637c0 .58-.22 1.136-.614 1.557a2.236 2.236 0 0 1-1.511.708v3.846a2.57 2.57 0 0 1-.74 1.806 2.544 2.544 0 0 1-1.789.759ZM6.376 1.996a3.175 3.175 0 0 0-2.945 1.98 3.224 3.224 0 0 0 .692 3.492 3.181 3.181 0 0 0 5.44-2.266 3.212 3.212 0 0 0-1.967-2.961 3.179 3.179 0 0 0-1.22-.245Zm0 4.275a1.06 1.06 0 0 1-1.063-1.069 1.071 1.071 0 0 1 1.063-1.068 1.082 1.082 0 0 1 1.062 1.068 1.071 1.071 0 0 1-1.062 1.07Z"
                        clip-rule="evenodd"
                      />
        </g>
    </symbol>

    <symbol id="about__second-icon">
        <g>
            <path
                        fill="#2091F9"
                        d="m29.815 7.365-1.998 3.006a13 13 0 0 1-.358 12.317H4.937A13 13 0 0 1 22.015 4.57l3.007-2a16.25 16.25 0 0 0-22.88 21.743 3.25 3.25 0 0 0 2.795 1.625h22.506a3.25 3.25 0 0 0 2.827-1.625 16.25 16.25 0 0 0-.438-16.965l-.017.017ZM13.907 18.48a3.25 3.25 0 0 0 4.598 0l9.198-13.797-13.796 9.198a3.25 3.25 0 0 0 0 4.599Z"
                      />
        </g>
    </symbol>

    <symbol id="clients__first-client">
        <g>
            <path
                d="m23.257 32.425 6.164.128a43.037 43.037 0 0 1-6.164-2.682v2.554Zm9.286-.846v.846l-3.122.128c5.874 1.995 11.25 2.266 15.241 1.149-3.203.032-7.371-.415-12.119-2.123ZM98.351 13.19c2.559 0 4.651-2.059 4.651-4.613 0-2.554-2.076-3.91-4.651-3.91-2.56 0-4.651 1.372-4.651 3.91 0 2.538 2.076 4.613 4.65 4.613Zm-4.668 19.235h9.319V14.786h-9.319v17.639Zm-11.86 0h9.318V1.25l-9.319 4.358v26.817Zm-4.99-19.06c-2.929-2.904-8.11-2.729-8.11-2.729s-5.2-.175-8.112 2.73c-2.93 2.905-2.704 5.411-2.704 8.396 0 2.985-.225 5.475 2.704 8.38 2.929 2.905 8.111 2.73 8.111 2.73s5.198.175 8.111-2.73c2.93-2.905 2.704-5.395 2.704-8.38-.016-3.001.21-5.507-2.704-8.396Zm-6.405 11.478c0 .574-.29 1.995-1.722 1.995s-1.722-1.42-1.722-1.995v-6.45c0-1.388 1.175-1.739 1.722-1.739.547 0 1.722.335 1.722 1.74v6.449ZM53.337 13.366c-2.93-2.905-8.112-2.73-8.112-2.73s-5.182-.175-8.111 2.73a9.581 9.581 0 0 0-.853.957C30.113 9.6 24.593 6.901 19.83 4.57V1.266l-3.62 1.692C7.452-.569 1.884.053.548 2.974c0 0-4.007 5.236 9.946 17.687v11.764h9.318V27.86a47.746 47.746 0 0 1-3.122-2.171 99.376 99.376 0 0 1-6.18-5.012v-4.949c2.108 2.347 4.909 5.012 8.594 8.03l.724.574v-4.757c0-1.101.274-2.905 1.738-2.905 1.465 0 1.706 1.101 1.706 2.394v7.774a43.04 43.04 0 0 0 9.287 4.725V16.574c0-2.985-2.157-5.97-6.535-5.97A7.13 7.13 0 0 0 19.83 14.1V5.432c6.744 3.337 13.503 7.423 16.078 9.306-1.642 2.331-1.497 4.486-1.497 6.976 0 2.985-.225 5.475 2.704 8.38 2.93 2.905 8.111 2.73 8.111 2.73s5.198.175 8.111-2.73c2.93-2.905 2.688-5.395 2.688-8.38 0-2.953.242-5.46-2.688-8.348ZM10.495 5.608v10.104C2.657 7.012 4.235 3.581 4.83 3.086c2.173-1.82 6.035-1.277 10.364.335l-4.699 2.187Zm36.452 19.235c0 .574-.29 1.995-1.722 1.995s-1.722-1.42-1.722-1.995v-6.45c0-1.388 1.175-1.739 1.722-1.739.547 0 1.722.335 1.722 1.74v6.449Z"
            />
        </g>
    </symbol>

    <symbol id="clients__second-client">
        <g>
            <path
                  d="M.7.995H13.31V35.01c0 5.395 2.432 8.605 4.41 9.942-2.06 1.809-8.3 3.406-13.001-.456C1.964 42.213.7 38.416.7 34.879V.995Zm78.768 28.278v-3.586h3.858V13.17h-4.23C77.457 5.624 70.795.017 62.835.017c-9.176 0-16.649 7.498-16.649 16.739v29.206c2.594.375 5.739-.049 8.381-2.281 2.772-2.282 4.02-6.063 4.02-9.616v-1.092h6.29V20.456h-6.29v-3.798c0-5.64 8.463-5.64 8.463 0v12.566c0 9.225 7.457 16.738 16.648 16.738V33.494a4.228 4.228 0 0 1-4.23-4.221ZM31.76 13.137v18.418c0 2.51-3.858 2.51-3.858 0V13.137h-12.45v21.628c0 3.88 1.297 8.801 7.295 10.415 5.998 1.597 9.435-1.728 9.435-1.728-.34 2.184-2.35 3.798-5.658 4.124-2.512.26-5.706-.587-7.295-1.271v11.457c4.07 1.223 8.349 1.598 12.58.766 7.635-1.483 12.45-7.888 12.45-16.428V13.056H31.759v.082Z"
                />
        </g>
    </symbol>

    <symbol id="clients__third-client">
        <g>
           <path
                  d="M102.398.146C89.521 8.828 88.15 15.13 87.035 17.057c-1.068 1.976-1.865 9.768-3.714 13.542-1.864 3.823-8.638 6.836-10.534 8.1-1.865 1.263-4.51 6.171-6.678 10.4-17.229-.713-26.68 6.284-41.31 15.161 4.685-1.571 6.9-2.705 6.9-2.705 15.014-5.831 22.202-11.064 44.801-7.97.175 0 .303.097.446.13a1.28 1.28 0 0 1 .494 1.75l-8.59 15.518a1.905 1.905 0 0 1-2.088.988c-20.209-3.856-36.162 2.802-50.825 3.013C4.24 75.162.399 69.557.399 69.298c0-.178.096-.275.271-.275 0 0 6.104 0 16.432-2.479 11.73-22.726 22.185-30.68 33.564-30.68 0 0 11.428 0 14.44 10.027 3.633-6.431 4.51-7.97 4.51-7.97.845-1.523 5.578-12.505 13.77-22.905C91.593 4.65 97.792 2.073 102.398.146Z"
                />
        </g>
    </symbol>

    <symbol id="clients__fourth-client">
        <g>
           <path
                  d="m27.156 3.793-6.969 1.464-.032 22.654c0 4.184 3.187 6.889 7.42 6.889 2.349 0 4.07-.43 5.02-.939v-5.377c-.917.366-5.423 1.67-5.423-2.498V15.932h5.424V9.918h-5.424l-.016-6.125Zm14.34 8.21-.435-2.085h-6.18v24.373h7.13V17.889c1.69-2.196 4.538-1.766 5.455-1.48V9.92c-.965-.335-4.297-.955-5.97 2.083ZM56.35.5l-7.178 1.511v5.76l7.178-1.512V.5ZM7.827 17.093c0-1.098.934-1.527 2.43-1.543 2.173 0 4.941.652 7.114 1.814v-6.65c-2.366-.923-4.732-1.289-7.098-1.289-5.793 0-9.656 2.99-9.656 7.986 0 7.828 10.863 6.555 10.863 9.928 0 1.304-1.142 1.734-2.735 1.734-2.366 0-5.424-.97-7.822-2.26v6.364a20.003 20.003 0 0 0 7.805 1.607c5.939 0 10.027-2.514 10.027-7.604 0-8.416-10.928-6.905-10.928-10.087Zm95.774 5.298c0-7.239-3.541-12.95-10.332-12.95-6.792 0-10.928 5.711-10.928 12.902 0 8.512 4.877 12.441 11.83 12.441 3.411 0 5.97-.764 7.917-1.83v-5.313c-1.947.97-4.184 1.559-7.017 1.559-2.784 0-5.23-.97-5.552-4.28h13.986c.032-.366.096-1.845.096-2.53Zm-14.146-2.673c0-3.182 1.98-4.518 3.766-4.518 1.754 0 3.62 1.336 3.62 4.518h-7.386ZM71.285 9.441c-2.8 0-4.603 1.304-5.6 2.211l-.37-1.75H59.02v32.582l7.146-1.495.016-7.987c1.03.748 2.559 1.782 5.054 1.782 5.117 0 9.785-3.69 9.785-12.663.016-8.21-4.716-12.68-9.737-12.68ZM69.579 28.93c-1.674 0-2.672-.605-3.364-1.337l-.048-10.5c.74-.811 1.77-1.4 3.412-1.4 2.607 0 4.41 2.896 4.41 6.586.016 3.803-1.755 6.65-4.41 6.65Zm-20.39 5.36h7.177V9.919h-7.178v24.373Z"
                />
        </g>
    </symbol>

    <symbol id="clients__fifth-client">
        <g>
           <path
                  d="M29.687 22.989c-.117 3.638 1.717 5.249 1.762 6.272a1.304 1.304 0 0 1-.664 1.007l-2.074 1.44a1.736 1.736 0 0 1-.912.308c-.07-.004-1.326.294-3.317-4.114a12.717 12.717 0 0 1-4.518 3.531 12.826 12.826 0 0 1-5.625 1.2c-2.637.142-9.784-1.485-9.416-9.03-.258-6.148 5.517-9.967 11.49-9.645 1.15.004 3.499.06 7.612 1.008v-2.51c.436-4.25-2.381-7.547-7.26-7.052-.388.001-3.142-.08-7.425 1.624-1.192.543-1.344.453-1.741.453-1.2 0-.707-3.45-.477-3.887.844-1.028 5.81-2.948 10.682-2.92a12.523 12.523 0 0 1 9.022 2.775 11.267 11.267 0 0 1 2.3 3.915 11.2 11.2 0 0 1 .562 4.495l-.001 11.13Zm-14 5.202c5.254-.075 7.478-3.207 7.985-4.894.398-1.614.332-2.636.332-4.4-1.567-.374-3.822-.78-6.409-.783-2.454-.183-6.936.904-6.761 5.181-.201 2.697 1.801 5.044 4.853 4.896Zm27.688 3.703c-1.273.115-1.866-.781-2.054-1.666L33.254 3.782a6.092 6.092 0 0 1-.311-1.379.736.736 0 0 1 .136-.55.748.748 0 0 1 .489-.293c.039-.006-.345 0 3.604 0 1.423-.141 1.886.969 2.033 1.666l5.787 22.62 5.371-22.62c.086-.517.477-1.778 2.074-1.645h2.78c.351-.029 1.8-.08 2.054 1.666l5.414 22.91 5.972-22.91c.078-.35.441-1.827 2.055-1.666h3.194c.138-.02.996-.13.85 1.378-.07.297.553-1.712-8.545 27.29-.186.885-.78 1.781-2.054 1.665H61.13c-1.773.185-2.027-1.551-2.055-1.726L53.704 8.162l-5.31 22.003c-.026.175-.28 1.912-2.054 1.727h-2.965v.002Zm44.302.904c-.952.002-5.495-.048-9.292-1.974a2.07 2.07 0 0 1-.925-.766 2.044 2.044 0 0 1-.34-1.147v-1.727c0-1.357 1.004-1.108 1.43-.946 1.627.652 2.67 1.147 4.667 1.542 5.938 1.21 8.549-.37 9.189-.72 2.13-1.254 2.298-4.124.85-5.613-1.698-1.412-2.507-1.465-8.607-3.373-.751-.208-7.079-2.186-7.093-8.41-.1-4.536 4.058-9.024 11.261-8.987 2.053-.002 7.522.663 9.003 2.509.218.335.327.73.31 1.13V5.94c0 .713-.262 1.07-.788 1.07-1.25-.138-3.465-1.794-7.964-1.727-1.116-.057-6.462.147-6.222 4.011-.07 3.045 4.31 4.188 4.811 4.32 5.906 1.761 7.881 2.054 10.225 4.75 2.777 3.574 1.28 7.758.705 8.905-3.091 6.022-11.084 5.532-11.22 5.529ZM94.19 49.64C82.845 57.948 66.376 62.37 52.316 62.37 33.343 62.494 15.01 55.577.92 42.978c-1.058-.946-.125-2.242 1.161-1.521a103.933 103.933 0 0 0 51.333 13.511A102.843 102.843 0 0 0 92.55 47.01c1.908-.803 3.526 1.253 1.64 2.63Zm4.729-5.347c-1.452-1.85-9.603-.865-13.253-.432-1.1.123-1.286-.823-.29-1.522 6.491-4.524 17.152-3.228 18.377-1.707 1.223 1.521-.332 12.112-6.409 17.172-.933.782-1.825.37-1.41-.658 1.366-3.414 4.436-11.002 2.985-12.853Z"
                />
        </g>
    </symbol>

    <symbol id="clients__sixth-client">
        <g>
           <path
                  d="M67.927 28.161c-2.395 0-4.503.995-6.051 2.55-5.7-3.96-13.38-6.51-21.89-6.783l4.422-20.012L58.491 7.09c0 3.463 2.81 6.286 6.259 6.286 3.512 0 6.338-2.903 6.338-6.367 0-3.463-2.81-6.366-6.338-6.366-2.46 0-4.583 1.492-5.636 3.528L43.562.708c-.782-.208-1.548.353-1.756 1.139l-4.854 22.065c-8.446.353-16.046 2.902-21.762 6.863a8.468 8.468 0 0 0-6.131-2.614c-8.877 0-11.783 11.963-3.656 16.052-.288 1.267-.416 2.614-.416 3.96C4.987 61.613 20.06 72.5 38.565 72.5c18.585 0 33.657-10.888 33.657-24.326 0-1.347-.144-2.758-.495-4.025 7.967-4.105 5.03-15.988-3.8-15.988Zm-49.64 16.902c0-3.528 2.81-6.366 6.34-6.366 3.448 0 6.258 2.822 6.258 6.366 0 3.464-2.81 6.286-6.259 6.286-3.513.016-6.339-2.822-6.339-6.286Zm34.216 14.993c-5.811 5.837-22.209 5.837-28.02 0-.64-.56-.64-1.555 0-2.197.558-.56 1.548-.56 2.107 0 4.439 4.57 19.16 4.65 23.79 0 .559-.56 1.549-.56 2.107 0 .655.642.655 1.636.016 2.197Zm-.127-8.691c-3.45 0-6.26-2.822-6.26-6.286 0-3.528 2.81-6.366 6.26-6.366a6.327 6.327 0 0 1 6.338 6.366c-.016 3.448-2.826 6.286-6.338 6.286Z"
                />
        </g>
    </symbol>

    <symbol id="contacts__phone-icon">
        <g>
            <path
                      fill="#FFA62B"
                      d="M56.431 39.495a3.785 3.785 0 0 0-5.357 0l-6.038 6.038c-2.8-.833-8.024-2.727-11.335-6.038-3.311-3.311-5.206-8.536-6.04-11.335l6.04-6.039a3.785 3.785 0 0 0 0-5.357L18.547 1.611a3.784 3.784 0 0 0-5.357 0L2.916 11.885a7.571 7.571 0 0 0-2.22 5.436c.087 5.395 1.515 24.132 16.283 38.9 14.767 14.767 33.504 16.191 38.903 16.282h.106c2 0 3.89-.788 5.322-2.22l10.275-10.274a3.784 3.784 0 0 0 0-5.357L56.43 39.495Zm-.481 25.427c-4.728-.08-20.905-1.348-33.615-14.062C9.584 38.108 8.35 21.875 8.273 17.242l7.596-7.596 9.796 9.797-4.898 4.898a3.79 3.79 0 0 0-1.03 3.455c.09.436 2.314 10.767 8.603 17.056 6.289 6.288 16.62 8.512 17.055 8.603a3.754 3.754 0 0 0 3.455-1.027l4.903-4.898 9.796 9.797-7.6 7.595Z"
                    />
        </g>
    </symbol>

    <symbol id="contacts__place-icon">
        <g>
           <path
                
                d="M29 42c7.997 0 14.5-6.279 14.5-14S36.997 14 29 14s-14.5 6.279-14.5 14S21.003 42 29 42Zm0-21c3.998 0 7.25 3.14 7.25 7s-3.252 7-7.25 7-7.25-3.14-7.25-7 3.252-7 7.25-7Z"
                />
            <path
                
                d="M26.934 70.34a3.564 3.564 0 0 0 4.132 0C32.15 69.577 57.603 51.262 57.5 28.4 57.5 12.741 44.714 0 29 0S.5 12.741.5 28.383C.397 51.263 25.85 69.577 26.934 70.34ZM29 7.1c11.788 0 21.375 9.553 21.375 21.318C50.45 44.173 34.743 58.32 29 62.96 23.26 58.316 7.55 44.166 7.625 28.4 7.625 16.653 17.212 7.1 29 7.1Z"
                />
        </g>
    </symbol>

    <symbol id="contacts__mail-icon">
        <g>
          <path
                      fill="#FFA62B"
                      d="M68.848 1.162a2.853 2.853 0 0 0-1.417-.804 2.78 2.78 0 0 0-1.611.114L2.362 24.471c-.548.216-1.019.6-1.351 1.1A3.084 3.084 0 0 0 .5 27.277c0 .608.178 1.203.51 1.704.333.5.804.885 1.351 1.1L30.052 41.6 41.13 70.398a2.983 2.983 0 0 0 1.026 1.35 2.81 2.81 0 0 0 1.57.54 2.811 2.811 0 0 0 1.622-.561 2.99 2.99 0 0 0 1.032-1.419L69.454 4.312c.197-.53.244-1.109.137-1.667a3.043 3.043 0 0 0-.743-1.483ZM43.725 60.889 35.677 39.89l13.817-14.37-4.067-4.229-13.932 14.49-20.076-8.49L61.983 8.3 43.725 60.89Z"
                    />
        </g>
    </symbol>

    <symbol id="footer__phone-icon">
        <g>
          <path
                      fill="#8EC2F2"
                      d="M17.85 12.977a1.2 1.2 0 0 0-1.697 0l-1.913 1.912c-.887-.263-2.541-.864-3.59-1.912C9.6 11.927 9 10.273 8.737 9.387l1.913-1.913a1.2 1.2 0 0 0 0-1.697l-4.8-4.8a1.199 1.199 0 0 0-1.697 0L.9 4.23a2.398 2.398 0 0 0-.703 1.722c.027 1.709.48 7.644 5.157 12.322 4.678 4.677 10.613 5.128 12.323 5.157h.033c.634 0 1.233-.25 1.686-.703l3.255-3.254a1.197 1.197 0 0 0 0-1.697l-4.8-4.801Zm-.153 8.054c-1.497-.025-6.621-.427-10.647-4.454-4.04-4.04-4.43-9.181-4.454-10.649l2.406-2.406 3.103 3.103-1.552 1.552a1.2 1.2 0 0 0-.326 1.094c.029.138.733 3.41 2.725 5.402 1.992 1.993 5.264 2.697 5.402 2.726a1.19 1.19 0 0 0 1.095-.326L17 15.522l3.104 3.103-2.408 2.406Z"
                    />
        </g>
    </symbol>

    <symbol id="footer__place-icon">
        <g fill="#8EC2F2" clip-path="url(#a)">
                      <path
                        d="M12 18.25c3.309 0 6-2.691 6-6s-2.691-6-6-6-6 2.691-6 6 2.691 6 6 6Zm0-9c1.654 0 3 1.345 3 3 0 1.654-1.346 3-3 3-1.655 0-3-1.346-3-3 0-1.655 1.345-3 3-3Z"
                      />
                      <path
                        d="M11.13 29.97a1.497 1.497 0 0 0 1.74 0c.456-.322 11.173-8.06 11.13-17.72 0-6.617-5.384-12-12-12S0 5.633 0 12.242c-.043 9.668 10.674 17.406 11.13 17.729ZM12 3.25c4.963 0 9 4.036 9 9.007.031 6.657-6.582 12.635-9 14.595-2.416-1.962-9.031-7.94-9-14.602 0-4.964 4.037-9 9-9Z"
                      />
                    </g>
                    <defs>
                      <clipPath id="a">
                        <path fill="#fff" d="M0 .25h24v30H0z" />
                      </clipPath>
                    </defs>
    </symbol>

    <symbol id="footer__mail-icon">
        <g>
          <path
                      fill="#8EC2F2"
                      d="M23.711 1.216a.99.99 0 0 0-.491-.279.964.964 0 0 0-.559.04l-22 8.32c-.19.075-.353.208-.468.382a1.07 1.07 0 0 0 0 1.181c.115.174.278.307.468.382l9.6 3.993 3.84 9.984c.072.19.196.352.356.468.16.116.349.182.544.188a.975.975 0 0 0 .562-.195c.165-.123.29-.294.358-.492l8-22.88a1.08 1.08 0 0 0 .047-.577 1.055 1.055 0 0 0-.257-.515Zm-8.71 20.707-2.79-7.28 4.79-4.982-1.41-1.466-4.83 5.023-6.96-2.943 17.53-6.584-6.33 18.232Z"
                    />
        </g>
    </symbol>

    <symbol id="footer__facebook-icon">
        <g>
          <path
            d="M23.04 0H.96A.959.959 0 0 0 0 .96v22.08c0 .531.429.96.96.96h22.08c.531 0 .96-.429.96-.96V.96a.959.959 0 0 0-.96-.96Zm-2.772 7.005h-1.917c-1.503 0-1.794.714-1.794 1.764v2.313h3.588l-.468 3.621h-3.12V24h-3.741v-9.294H9.687v-3.624h3.129v-2.67c0-3.099 1.893-4.788 4.659-4.788 1.326 0 2.463.099 2.796.144v3.237h-.003Z"
            />
        </g>
    </symbol>

    <symbol id="footer__instagram-icon">
        <g>
          <path
            d="M12.005 5.847A6.144 6.144 0 0 0 5.852 12a6.144 6.144 0 0 0 6.152 6.153A6.144 6.144 0 0 0 18.157 12a6.144 6.144 0 0 0-6.152-6.153Zm0 10.152a4.007 4.007 0 0 1-4-3.999 4.007 4.007 0 0 1 4-3.999 4.007 4.007 0 0 1 3.998 4 4.007 4.007 0 0 1-3.998 3.998ZM18.41 4.161c-.796 0-1.438.642-1.438 1.437s.642 1.437 1.438 1.437a1.433 1.433 0 0 0 1.328-1.987 1.436 1.436 0 0 0-1.328-.887Zm5.588 7.84c0-1.657.015-3.298-.078-4.95-.093-1.92-.53-3.625-1.935-5.029C20.578.615 18.878.18 16.958.087 15.301-.006 13.66.01 12.008.01c-1.656 0-3.297-.015-4.95.078C5.138.18 3.434.618 2.03 2.022.623 3.43.188 5.13.095 7.05.002 8.706.017 10.347.017 12s-.015 3.297.078 4.95c.093 1.92.53 3.624 1.935 5.028 1.407 1.407 3.108 1.842 5.028 1.935 1.656.093 3.296.078 4.95.078 1.656 0 3.297.015 4.95-.078 1.92-.093 3.623-.53 5.027-1.935 1.407-1.407 1.843-3.108 1.936-5.028.096-1.653.078-3.294.078-4.95Zm-2.64 7.073a3.812 3.812 0 0 1-.905 1.374 3.838 3.838 0 0 1-1.375.906c-1.578.627-5.324.486-7.073.486-1.75 0-5.5.141-7.077-.483a3.812 3.812 0 0 1-1.374-.906 3.838 3.838 0 0 1-.906-1.374c-.624-1.58-.483-5.328-.483-7.077 0-1.749-.141-5.499.483-7.077.219-.546.483-.954.906-1.374.423-.42.828-.687 1.374-.906 1.578-.624 5.327-.483 7.077-.483 1.748 0 5.498-.14 7.076.483.547.22.954.483 1.375.906.422.423.686.828.905 1.374.624 1.578.483 5.328.483 7.077 0 1.75.141 5.496-.486 7.074Z"
            />
        </g>
    </symbol>

    <symbol id="footer__twitter-icon">
        <g>
            <path
                d="M24.001 2.465a9.74 9.74 0 0 1-2.829.772A4.96 4.96 0 0 0 23.333.49a9.613 9.613 0 0 1-3.117 1.205A4.902 4.902 0 0 0 18.582.526a4.84 4.84 0 0 0-1.956-.408c-2.723 0-4.913 2.24-4.913 4.988 0 .386.046.772.121 1.143a13.896 13.896 0 0 1-10.13-5.22 5.007 5.007 0 0 0-.668 2.518c0 1.731.867 3.257 2.19 4.155a4.901 4.901 0 0 1-2.222-.635v.062c0 2.424 1.688 4.432 3.939 4.894a5.133 5.133 0 0 1-1.294.17c-.32 0-.622-.032-.928-.076a4.931 4.931 0 0 0 4.593 3.459 9.756 9.756 0 0 1-6.1 2.131c-.412 0-.792-.015-1.187-.061a13.765 13.765 0 0 0 7.546 2.236c9.035 0 13.98-7.596 13.98-14.189 0-.216 0-.432-.015-.649.957-.71 1.795-1.59 2.463-2.579Z"
                />
        </g>
    </symbol>

    <symbol id="footer__youtube-icon">
        <g>
          <path
            d="M23.47 2.932a3.192 3.192 0 0 0-.775-1.41 2.966 2.966 0 0 0-1.34-.814C19.488.177 11.988.177 11.988.177s-7.5 0-9.367.53a2.966 2.966 0 0 0-1.34.815c-.372.39-.639.877-.775 1.41A34.16 34.16 0 0 0 0 9a34.161 34.161 0 0 0 .505 6.068c.136.533.403 1.02.775 1.41.37.39.833.67 1.34.814 1.866.531 9.367.531 9.367.531s7.5 0 9.367-.531a2.966 2.966 0 0 0 1.34-.815c.371-.39.639-.876.775-1.409.348-2.002.518-4.033.505-6.068a34.163 34.163 0 0 0-.505-6.068Zm-13.88 9.85V5.218l6.225 3.78-6.225 3.782Z"
            />
        </g>
    </symbol>
</svg>