<svg width="713" height="127" viewBox="0 0 713 127" fill="none" xmlns="http://www.w3.org/2000/svg">
<path d="M25.5748 112.786C12.3521 112.639 1.10661 112.296 0.73588 112.101C-0.623461 111.415 -0.129155 110.338 2.46595 108.086C4.07245 106.716 6.23504 105.492 8.45941 104.806C11.7342 103.729 12.8464 103.68 24.9569 103.729C35.708 103.729 40.095 103.974 50.2901 105.1C61.4737 106.373 63.451 106.422 71.2981 106.079C76.0558 105.834 82.9143 105.639 86.498 105.687C92.1207 105.687 93.4183 105.834 96.0752 106.911C98.1142 107.695 99.2882 108.527 99.6589 109.408C100.4 111.072 100.215 111.219 96.1988 112.101C92.3061 112.982 63.8835 113.226 25.5748 112.786Z" fill="#00A0C1"/>
<path d="M48.3128 100.058C44.1729 99.6172 40.651 99.1767 40.5274 99.0298C40.3421 98.8829 40.8364 89.9733 41.5778 79.2033C43.1843 56.2438 43.864 59.181 34.9047 49.7328L29.282 43.7604L27.6755 45.1311C24.3389 48.0194 18.9015 48.2642 15.3796 45.6696C14.2674 44.8374 12.9081 44.201 12.352 44.201C10.8691 44.201 7.5325 42.4876 6.54389 41.1658C3.08374 36.8579 6.17316 31.2771 12.352 30.6407C14.2056 30.4448 15.565 29.9064 16.6772 28.9762C20.4462 25.7942 27.3665 26.3816 30.2088 30.1511C31.5681 31.8645 31.8153 35.3403 30.8267 36.9068C30.0852 37.9349 31.8153 40.1868 39.2917 48.0684C42.3811 51.3483 43.2461 51.9847 43.5551 51.2504C43.7404 50.7119 44.1112 49.9776 44.3583 49.586C44.9144 48.7537 43.6786 39.5503 42.5047 35.634C42.0721 34.3122 41.2071 32.5988 40.5892 31.9135C37.8705 29.0252 39.0445 23.3465 42.7518 21.4373C43.6168 20.9967 44.4819 19.9686 44.6672 19.0875C46.2737 12.4297 56.1599 10.7652 60.485 16.4439C61.1647 17.3251 61.7208 18.6958 61.7208 19.528C61.7208 20.4092 62.4005 22.0737 63.2655 23.1996C65.0574 25.7452 65.3045 28.8294 63.7598 31.1302C62.4623 33.1373 56.1599 48.4111 56.1599 49.586C56.1599 52.2785 56.9631 51.9847 60.7322 48.0194C68.4557 39.8441 69.8151 38.0328 69.1354 36.6131C65.6753 29.4168 76.6118 23.5912 83.4085 29.0252C84.5207 29.8574 86.0036 30.4448 87.6719 30.6407C92.6767 31.1792 96.0133 35.3403 94.5304 39.2566C93.7889 41.3617 91.0085 43.5156 88.4133 44.0541C87.4865 44.201 85.7564 44.9843 84.5825 45.7186C80.628 48.2642 75.8085 48.0194 72.472 45.1801L70.8037 43.8094L65.2427 49.4881C62.2151 52.6701 59.1875 56.0969 58.446 57.1739C57.0249 59.4258 56.9631 57.9572 58.6314 82.1406C59.3111 91.8335 59.8672 100.058 59.8672 100.401C59.8672 101.135 58.0135 101.086 48.3128 100.058ZM53.3176 43.6136C56.1599 36.1235 56.3452 35.3892 55.9127 35.0466C55.233 34.5081 48.8689 34.606 48.1892 35.1445C47.8802 35.4382 48.1274 37.788 48.8071 41.019C49.4249 44.0052 49.9193 46.6977 49.981 47.0403C49.981 47.3341 50.4136 47.6278 50.9079 47.6278C51.464 47.6278 52.329 46.2571 53.3176 43.6136Z" fill="#00A0C1"/>
</svg>
